# xmcd CD database file
#
# Track frame offsets:
#	150
#	26637
#	49221
#	65538
#	89728
#	109756
#	134159
#	157448
#	170666
#	189806
#	208125
#	229237
#	253482
#	273481
#	289622
#
# Disc length: 4120 seconds
#
# Revision: 1
# Processed by: cddbd v1.5.2PL0 Copyright (c) Steve Scherf et al.
# Submitted via: CDex 1.70beta2
#
DISCID=f510160f
DTITLE=David Arkenstone - Celtic Journeys
DYEAR=2011
DGENRE=New Age
TTITLE0=Over the Hills
TTITLE1=Call Of The Sea
TTITLE2=Harry's Game
TTITLE3=The Fairy Ring
TTITLE4=She Moved Through The Fair
TTITLE5=The Mummer's Dance
TTITLE6=The Girl With The Midnight Hair
TTITLE7=Celebration Jig
TTITLE8=I Will Find You
TTITLE9=Cherish the Ladies
TTITLE10=Celtic Sanctuary
TTITLE11=Song of the Silkie
TTITLE12=Scarborough Fair
TTITLE13=The Lark in the Morning
TTITLE14=Stars in Her Eyes
EXTD=YEAR: 2011
EXTT0=
EXTT1=
EXTT2=
EXTT3=
EXTT4=
EXTT5=
EXTT6=
EXTT7=
EXTT8=
EXTT9=
EXTT10=
EXTT11=
EXTT12=
EXTT13=
EXTT14=
PLAYORDER=
